<svg width="11" height="10" viewBox="0 0 11 10" fill="none" xmlns="http://www.w3.org/2000/svg">
<path id="Vector" d="M4.21429 0C5.19938 0 6.14412 0.391325 6.84068 1.08789C7.53725 1.78445 7.92857 2.7292 7.92857 3.71429C7.92857 4.63429 7.59143 5.48 7.03714 6.13143L7.19143 6.28571H7.64286L10.5 9.14286L9.64286 10L6.78571 7.14286V6.69143L6.63143 6.53714C5.98 7.09143 5.13429 7.42857 4.21429 7.42857C3.2292 7.42857 2.28445 7.03725 1.58789 6.34068C0.891325 5.64412 0.5 4.69938 0.5 3.71429C0.5 2.7292 0.891325 1.78445 1.58789 1.08789C2.28445 0.391325 3.2292 0 4.21429 0ZM4.21429 1.14286C2.78571 1.14286 1.64286 2.28571 1.64286 3.71429C1.64286 5.14286 2.78571 6.28571 4.21429 6.28571C5.64286 6.28571 6.78571 5.14286 6.78571 3.71429C6.78571 2.28571 5.64286 1.14286 4.21429 1.14286Z" fill="white"/>
</svg>
